<svg xmlns="http://www.w3.org/2000/svg" xmlns:xlink="http://www.w3.org/1999/xlink" width="400" zoomAndPan="magnify" viewBox="0 0 300 299.999988" height="400" preserveAspectRatio="xMidYMid meet" version="1.0"><defs><clipPath id="295174b79c"><path d="M 11.789062 117.5625 L 288.539062 117.5625 L 288.539062 299.8125 L 11.789062 299.8125 Z M 11.789062 117.5625 " clip-rule="nonzero"/></clipPath><clipPath id="241fabd8ed"><path d="M 107.675781 4.285156 L 192.425781 4.285156 L 192.425781 106 L 107.675781 106 Z M 107.675781 4.285156 " clip-rule="nonzero"/></clipPath><clipPath id="63f7caae85"><path d="M 143 118 L 157 118 L 157 131.035156 L 143 131.035156 Z M 143 118 " clip-rule="nonzero"/></clipPath></defs><g clip-path="url(#295174b79c)"><path fill="#0c1116" d="M 288.460938 132.628906 C 288.460938 124.296875 281.65625 117.5625 273.359375 117.5625 C 265.0625 117.5625 258.257812 124.351562 258.257812 132.628906 C 258.257812 140.910156 262.847656 145.378906 269.320312 147.144531 L 269.320312 192.183594 C 266 188.375 261.964844 185.945312 257.648438 185.175781 L 257.648438 168.835938 C 257.648438 149.464844 241.882812 133.734375 222.464844 133.734375 L 67.683594 133.734375 C 48.265625 133.734375 32.5 149.464844 32.5 168.835938 L 32.5 185.117188 C 27.082031 185.945312 22.101562 189.425781 18.339844 195.054688 C 14.136719 201.289062 11.867188 209.515625 11.867188 218.234375 C 11.867188 226.957031 14.191406 235.179688 18.339844 241.417969 C 22.15625 247.101562 27.082031 250.523438 32.5 251.351562 L 32.5 263.878906 C 32.5 283.695312 48.65625 299.8125 68.515625 299.8125 L 221.523438 299.8125 C 241.382812 299.8125 257.539062 283.695312 257.539062 263.878906 L 257.539062 251.296875 C 262.902344 250.359375 267.769531 246.882812 271.53125 241.25 C 275.625 235.070312 277.894531 226.902344 277.894531 218.234375 C 277.894531 209.570312 277.839844 215.253906 277.671875 213.765625 C 277.671875 213.433594 277.617188 213.101562 277.5625 212.828125 L 277.5625 147.144531 C 283.867188 145.269531 288.40625 139.417969 288.40625 132.683594 Z M 263.347656 132.628906 C 263.347656 127.109375 267.828125 122.640625 273.359375 122.640625 C 278.890625 122.640625 283.371094 127.109375 283.371094 132.628906 C 283.371094 138.148438 279.664062 141.847656 274.742188 142.507812 C 274.519531 142.507812 274.300781 142.507812 274.078125 142.566406 C 274.078125 142.566406 274.023438 142.566406 273.96875 142.566406 C 273.800781 142.566406 273.578125 142.566406 273.414062 142.566406 C 273.304688 142.566406 273.191406 142.566406 273.082031 142.566406 C 272.972656 142.566406 272.917969 142.566406 272.804688 142.566406 C 272.585938 142.566406 272.363281 142.566406 272.140625 142.507812 C 267.109375 141.902344 263.347656 137.652344 263.347656 132.628906 Z M 37.644531 168.890625 C 37.644531 152.332031 51.144531 138.921875 67.683594 138.921875 L 222.355469 138.921875 C 238.949219 138.921875 252.394531 152.390625 252.394531 168.890625 L 252.394531 256.042969 C 252.394531 273.042969 238.5625 286.839844 221.523438 286.839844 L 68.515625 286.839844 C 51.476562 286.839844 37.644531 273.042969 37.644531 256.042969 Z M 22.601562 238.601562 C 19.003906 233.191406 16.957031 226.019531 16.957031 218.289062 C 16.957031 210.5625 18.949219 203.332031 22.601562 197.980469 C 25.367188 193.839844 28.851562 191.246094 32.5 190.417969 L 32.5 246.21875 C 28.796875 245.390625 25.367188 242.742188 22.601562 238.65625 Z M 221.523438 294.734375 L 68.515625 294.734375 C 58.058594 294.734375 48.765625 289.546875 43.179688 281.542969 C 43.234375 281.597656 43.34375 281.707031 43.453125 281.761719 C 43.566406 281.875 43.675781 281.984375 43.730469 282.039062 C 43.84375 282.148438 43.953125 282.261719 44.0625 282.316406 C 44.175781 282.425781 44.285156 282.480469 44.394531 282.589844 C 44.503906 282.703125 44.617188 282.8125 44.726562 282.867188 C 44.835938 282.976562 44.949219 283.03125 45.058594 283.144531 C 45.167969 283.253906 45.28125 283.308594 45.390625 283.417969 C 45.5 283.53125 45.613281 283.585938 45.722656 283.695312 C 45.832031 283.804688 45.945312 283.859375 46.054688 283.972656 C 46.164062 284.082031 46.277344 284.136719 46.386719 284.246094 C 46.496094 284.359375 46.609375 284.414062 46.71875 284.523438 C 46.828125 284.632812 46.941406 284.6875 47.050781 284.800781 C 47.160156 284.910156 47.273438 284.964844 47.4375 285.074219 C 47.546875 285.128906 47.660156 285.242188 47.769531 285.296875 C 47.878906 285.40625 48.046875 285.460938 48.15625 285.570312 C 48.265625 285.628906 48.378906 285.738281 48.488281 285.792969 C 48.597656 285.902344 48.765625 285.957031 48.875 286.070312 C 48.988281 286.125 49.097656 286.234375 49.207031 286.289062 C 49.320312 286.34375 49.484375 286.453125 49.59375 286.511719 C 49.707031 286.566406 49.816406 286.675781 49.925781 286.730469 C 50.039062 286.785156 50.203125 286.894531 50.3125 286.953125 C 50.425781 287.007812 50.535156 287.0625 50.644531 287.171875 C 50.757812 287.226562 50.921875 287.339844 51.035156 287.394531 C 51.144531 287.449219 51.253906 287.503906 51.367188 287.613281 C 51.476562 287.667969 51.640625 287.78125 51.753906 287.835938 C 51.863281 287.890625 51.972656 287.945312 52.085938 288 C 52.195312 288.054688 52.359375 288.109375 52.472656 288.222656 C 52.582031 288.277344 52.691406 288.332031 52.859375 288.386719 C 53.023438 288.441406 53.136719 288.496094 53.300781 288.605469 C 53.414062 288.664062 53.523438 288.71875 53.6875 288.773438 C 53.855469 288.828125 53.964844 288.882812 54.132812 288.9375 C 54.242188 288.9375 54.351562 289.050781 54.519531 289.105469 C 54.683594 289.160156 54.796875 289.214844 54.960938 289.269531 C 55.070312 289.269531 55.238281 289.378906 55.347656 289.433594 C 55.515625 289.492188 55.625 289.546875 55.789062 289.601562 C 55.902344 289.601562 56.066406 289.710938 56.179688 289.765625 C 56.34375 289.765625 56.453125 289.875 56.621094 289.933594 C 56.730469 289.933594 56.898438 290.042969 57.007812 290.042969 C 57.171875 290.042969 57.285156 290.152344 57.449219 290.207031 C 57.5625 290.207031 57.726562 290.316406 57.835938 290.316406 C 58.003906 290.316406 58.113281 290.429688 58.28125 290.429688 C 58.390625 290.429688 58.558594 290.484375 58.667969 290.539062 C 58.832031 290.539062 59 290.648438 59.109375 290.648438 C 59.21875 290.648438 59.386719 290.703125 59.496094 290.761719 C 59.664062 290.761719 59.828125 290.816406 59.941406 290.871094 C 60.050781 290.871094 60.214844 290.925781 60.328125 290.980469 C 60.492188 290.980469 60.660156 291.035156 60.824219 291.089844 C 60.933594 291.089844 61.101562 291.144531 61.210938 291.203125 C 61.378906 291.203125 61.542969 291.257812 61.710938 291.3125 C 61.820312 291.3125 61.988281 291.3125 62.097656 291.367188 C 62.261719 291.367188 62.429688 291.367188 62.59375 291.421875 C 62.707031 291.421875 62.871094 291.421875 62.980469 291.476562 C 63.148438 291.476562 63.3125 291.476562 63.480469 291.53125 C 63.589844 291.53125 63.757812 291.53125 63.867188 291.585938 C 64.035156 291.585938 64.199219 291.585938 64.363281 291.644531 C 64.476562 291.644531 64.640625 291.644531 64.753906 291.644531 C 64.917969 291.644531 65.085938 291.644531 65.304688 291.644531 C 65.417969 291.644531 65.582031 291.644531 65.691406 291.644531 C 65.859375 291.644531 66.078125 291.644531 66.246094 291.644531 C 66.355469 291.644531 66.46875 291.644531 66.632812 291.644531 C 66.855469 291.644531 67.019531 291.644531 67.242188 291.644531 C 67.351562 291.644531 67.464844 291.644531 67.574219 291.644531 C 67.90625 291.644531 68.183594 291.644531 68.515625 291.644531 L 221.523438 291.644531 C 221.855469 291.644531 222.132812 291.644531 222.464844 291.644531 C 222.578125 291.644531 222.6875 291.644531 222.796875 291.644531 C 223.019531 291.644531 223.183594 291.644531 223.40625 291.644531 C 223.515625 291.644531 223.628906 291.644531 223.792969 291.644531 C 223.960938 291.644531 224.179688 291.644531 224.347656 291.644531 C 224.457031 291.644531 224.621094 291.644531 224.734375 291.644531 C 224.898438 291.644531 225.066406 291.644531 225.285156 291.644531 C 225.398438 291.644531 225.5625 291.644531 225.675781 291.644531 C 225.839844 291.644531 226.007812 291.644531 226.171875 291.585938 C 226.28125 291.585938 226.449219 291.585938 226.558594 291.53125 C 226.726562 291.53125 226.890625 291.53125 227.058594 291.476562 C 227.167969 291.476562 227.332031 291.476562 227.445312 291.421875 C 227.609375 291.421875 227.777344 291.421875 227.941406 291.367188 C 228.054688 291.367188 228.21875 291.367188 228.328125 291.3125 C 228.496094 291.3125 228.660156 291.257812 228.828125 291.203125 C 228.9375 291.203125 229.105469 291.144531 229.214844 291.089844 C 229.378906 291.089844 229.546875 291.035156 229.710938 290.980469 C 229.824219 290.980469 229.988281 290.925781 230.097656 290.871094 C 230.265625 290.871094 230.429688 290.816406 230.542969 290.761719 C 230.652344 290.761719 230.820312 290.703125 230.929688 290.648438 C 231.09375 290.648438 231.261719 290.59375 231.371094 290.539062 C 231.484375 290.539062 231.648438 290.484375 231.757812 290.429688 C 231.925781 290.429688 232.035156 290.316406 232.203125 290.316406 C 232.3125 290.316406 232.476562 290.207031 232.589844 290.207031 C 232.753906 290.207031 232.867188 290.097656 233.03125 290.042969 C 233.140625 290.042969 233.308594 289.933594 233.417969 289.933594 C 233.585938 289.933594 233.695312 289.820312 233.859375 289.765625 C 233.972656 289.765625 234.136719 289.65625 234.25 289.601562 C 234.414062 289.601562 234.523438 289.492188 234.691406 289.433594 C 234.800781 289.433594 234.96875 289.324219 235.078125 289.269531 C 235.246094 289.214844 235.355469 289.160156 235.519531 289.105469 C 235.632812 289.105469 235.742188 288.992188 235.90625 288.9375 C 236.074219 288.882812 236.183594 288.828125 236.351562 288.773438 C 236.460938 288.71875 236.570312 288.664062 236.738281 288.605469 C 236.902344 288.550781 237.015625 288.496094 237.179688 288.386719 C 237.289062 288.332031 237.402344 288.277344 237.566406 288.222656 C 237.734375 288.164062 237.84375 288.109375 237.953125 288 C 238.066406 287.945312 238.175781 287.890625 238.285156 287.835938 C 238.398438 287.78125 238.5625 287.667969 238.675781 287.613281 C 238.785156 287.558594 238.894531 287.503906 239.003906 287.394531 C 239.117188 287.339844 239.28125 287.226562 239.394531 287.171875 C 239.503906 287.117188 239.613281 287.0625 239.726562 286.953125 C 239.835938 286.894531 240 286.785156 240.113281 286.730469 C 240.222656 286.675781 240.332031 286.566406 240.445312 286.511719 C 240.554688 286.453125 240.722656 286.34375 240.832031 286.289062 C 240.941406 286.234375 241.050781 286.125 241.164062 286.070312 C 241.273438 285.957031 241.441406 285.902344 241.550781 285.792969 C 241.660156 285.738281 241.773438 285.628906 241.882812 285.570312 C 241.992188 285.460938 242.160156 285.40625 242.269531 285.296875 C 242.378906 285.242188 242.492188 285.128906 242.601562 285.074219 C 242.710938 284.964844 242.824219 284.910156 242.988281 284.800781 C 243.097656 284.742188 243.210938 284.632812 243.320312 284.523438 C 243.429688 284.414062 243.542969 284.359375 243.652344 284.246094 C 243.761719 284.136719 243.875 284.082031 243.984375 283.972656 C 244.09375 283.859375 244.207031 283.804688 244.316406 283.695312 C 244.425781 283.585938 244.539062 283.53125 244.648438 283.417969 C 244.757812 283.308594 244.871094 283.253906 244.980469 283.144531 C 245.089844 283.03125 245.203125 282.976562 245.3125 282.867188 C 245.421875 282.757812 245.535156 282.648438 245.644531 282.589844 C 245.753906 282.480469 245.867188 282.425781 245.976562 282.316406 C 246.085938 282.203125 246.199219 282.09375 246.308594 282.039062 C 246.417969 281.929688 246.527344 281.820312 246.585938 281.761719 C 246.640625 281.707031 246.75 281.597656 246.859375 281.542969 C 241.273438 289.492188 231.980469 294.734375 221.523438 294.734375 Z M 257.539062 246.109375 L 257.539062 190.417969 C 262.296875 191.632812 266.554688 195.714844 269.429688 201.953125 C 269.542969 202.175781 269.652344 202.449219 269.761719 202.671875 C 271.257812 206.203125 272.253906 210.066406 272.640625 214.207031 C 272.75 215.53125 272.804688 216.910156 272.804688 218.234375 C 272.804688 232.199219 266.167969 243.902344 257.539062 246.054688 Z M 257.539062 246.109375 " fill-opacity="1" fill-rule="nonzero"/></g><path fill="#0c1116" d="M 74.65625 277.402344 L 215.441406 277.402344 C 226.667969 277.402344 235.796875 268.296875 235.796875 257.089844 L 235.796875 176.507812 C 235.796875 165.304688 226.667969 156.199219 215.441406 156.199219 L 74.65625 156.199219 C 63.425781 156.199219 54.296875 165.304688 54.296875 176.507812 L 54.296875 257.148438 C 54.296875 268.351562 63.425781 277.457031 74.65625 277.457031 Z M 59.441406 176.507812 C 59.441406 168.121094 66.246094 161.332031 74.65625 161.332031 L 215.441406 161.332031 C 223.847656 161.332031 230.652344 168.121094 230.652344 176.507812 L 230.652344 257.148438 C 230.652344 265.535156 223.847656 272.324219 215.441406 272.324219 L 74.65625 272.324219 C 66.246094 272.324219 59.441406 265.535156 59.441406 257.148438 Z M 59.441406 176.507812 " fill-opacity="1" fill-rule="nonzero"/><path fill="#0c1116" d="M 76.257812 219.449219 C 76.371094 219.449219 76.480469 219.449219 76.589844 219.449219 C 78.195312 219.449219 79.742188 218.84375 80.960938 217.738281 C 82.289062 216.578125 83.0625 214.921875 83.117188 213.15625 C 83.503906 204.710938 90.695312 197.867188 99.160156 197.867188 C 107.625 197.867188 114.816406 204.710938 115.203125 213.15625 C 115.367188 216.691406 118.246094 219.394531 121.785156 219.394531 C 125.328125 219.394531 122.007812 219.394531 122.117188 219.394531 C 123.886719 219.339844 125.492188 218.566406 126.652344 217.242188 C 127.816406 215.972656 128.425781 214.261719 128.367188 212.496094 C 127.648438 196.929688 114.816406 184.734375 99.214844 184.734375 C 83.617188 184.734375 70.78125 196.929688 70.0625 212.496094 C 70.007812 214.261719 70.617188 215.917969 71.777344 217.242188 C 72.941406 218.511719 74.597656 219.285156 76.3125 219.394531 Z M 99.160156 189.921875 C 112.050781 189.921875 122.617188 199.964844 123.222656 212.828125 C 123.222656 213.210938 123.113281 213.597656 122.835938 213.875 C 122.558594 214.152344 122.226562 214.316406 121.785156 214.371094 C 121.011719 214.371094 120.347656 213.765625 120.347656 212.992188 C 119.851562 201.898438 110.335938 192.847656 99.214844 192.847656 C 88.097656 192.847656 78.582031 201.898438 78.085938 212.992188 C 78.085938 213.378906 77.917969 213.765625 77.585938 213.984375 C 77.421875 214.152344 77.089844 214.371094 76.535156 214.371094 C 76.148438 214.371094 75.816406 214.207031 75.539062 213.875 C 75.261719 213.542969 75.152344 213.210938 75.152344 212.828125 C 75.761719 199.964844 86.328125 189.921875 99.214844 189.921875 Z M 99.160156 189.921875 " fill-opacity="1" fill-rule="nonzero"/><path fill="#0c1116" d="M 167.976562 219.449219 C 168.085938 219.449219 168.199219 219.449219 168.308594 219.449219 C 169.914062 219.449219 171.460938 218.84375 172.679688 217.738281 C 174.007812 216.578125 174.78125 214.921875 174.835938 213.15625 C 175.222656 204.710938 182.414062 197.867188 190.878906 197.867188 C 199.34375 197.867188 206.535156 204.710938 206.921875 213.15625 C 207.085938 216.691406 209.964844 219.394531 213.503906 219.394531 C 217.042969 219.394531 213.726562 219.394531 213.835938 219.394531 C 215.605469 219.339844 217.210938 218.566406 218.371094 217.242188 C 219.535156 215.972656 220.140625 214.261719 220.085938 212.496094 C 219.367188 196.929688 206.535156 184.734375 190.933594 184.734375 C 175.335938 184.734375 162.5 196.929688 161.78125 212.496094 C 161.726562 214.261719 162.335938 215.917969 163.496094 217.242188 C 164.65625 218.511719 166.316406 219.285156 168.03125 219.394531 Z M 190.878906 189.921875 C 203.769531 189.921875 214.332031 199.964844 214.941406 212.828125 C 214.941406 213.210938 214.832031 213.597656 214.554688 213.875 C 214.277344 214.152344 213.945312 214.316406 213.503906 214.371094 C 212.730469 214.371094 212.066406 213.765625 212.066406 212.992188 C 211.566406 201.898438 202.054688 192.847656 190.933594 192.847656 C 179.816406 192.847656 170.300781 201.898438 169.800781 212.992188 C 169.800781 213.378906 169.636719 213.765625 169.304688 213.984375 C 169.136719 214.152344 168.804688 214.371094 168.253906 214.371094 C 167.867188 214.371094 167.535156 214.207031 167.257812 213.875 C 166.980469 213.597656 166.871094 213.210938 166.871094 212.828125 C 167.480469 199.964844 178.042969 189.921875 190.933594 189.921875 Z M 190.878906 189.921875 " fill-opacity="1" fill-rule="nonzero"/><path fill="#0c1116" d="M 115.921875 231.535156 C 114.316406 232.199219 113.046875 233.46875 112.328125 235.070312 C 111.664062 236.671875 111.664062 238.492188 112.328125 240.09375 C 117.804688 253.449219 130.636719 262.058594 145.074219 262.058594 C 159.511719 262.058594 172.347656 253.449219 177.824219 240.09375 C 178.488281 238.492188 178.488281 236.671875 177.824219 235.070312 C 177.160156 233.46875 175.886719 232.199219 174.226562 231.535156 C 170.851562 230.15625 167.035156 231.757812 165.652344 235.125 C 162.222656 243.515625 154.148438 248.921875 145.074219 248.921875 C 136.003906 248.921875 127.925781 243.515625 124.496094 235.125 C 123.113281 231.757812 119.296875 230.15625 115.921875 231.535156 Z M 145.019531 254 C 156.195312 254 166.097656 247.324219 170.355469 237.054688 C 170.632812 236.339844 171.515625 235.953125 172.238281 236.285156 C 172.625 236.449219 172.898438 236.726562 173.011719 237.054688 C 173.175781 237.386719 173.175781 237.828125 173.011719 238.160156 C 168.363281 249.585938 157.355469 256.925781 145.019531 256.925781 C 132.683594 256.925781 121.675781 249.585938 117.027344 238.160156 C 116.863281 237.828125 116.863281 237.386719 117.027344 237.054688 C 117.195312 236.726562 117.472656 236.449219 117.804688 236.285156 C 117.96875 236.226562 118.191406 236.171875 118.355469 236.171875 C 118.910156 236.171875 119.460938 236.503906 119.683594 237.054688 C 123.886719 247.378906 133.84375 254 145.019531 254 Z M 145.019531 254 " fill-opacity="1" fill-rule="nonzero"/><path fill="#000000" d="M 158.519531 122.585938 L 141.585938 122.585938 C 138.082031 122.585938 135.234375 119.742188 135.234375 116.246094 L 135.234375 103.574219 C 135.234375 102.40625 136.183594 101.460938 137.351562 101.460938 L 162.753906 101.460938 C 163.921875 101.460938 164.871094 102.40625 164.871094 103.574219 L 164.871094 116.246094 C 164.871094 119.742188 162.023438 122.585938 158.519531 122.585938 Z M 139.46875 105.6875 L 139.46875 116.246094 C 139.46875 117.414062 140.417969 118.359375 141.585938 118.359375 L 158.519531 118.359375 C 159.6875 118.359375 160.636719 117.414062 160.636719 116.246094 L 160.636719 105.6875 Z M 139.46875 105.6875 " fill-opacity="1" fill-rule="nonzero"/><g clip-path="url(#241fabd8ed)"><path fill="#000000" d="M 162.753906 105.6875 L 137.351562 105.6875 C 136.183594 105.6875 135.234375 104.742188 135.234375 103.574219 L 135.234375 102.839844 C 135.234375 93.929688 130.972656 85.40625 123.542969 79.449219 C 112.589844 70.667969 106.726562 57.050781 107.859375 43.03125 C 109.484375 22.953125 125.199219 6.773438 145.222656 4.558594 C 157.449219 3.207031 169.191406 6.933594 178.28125 15.054688 C 187.246094 23.0625 192.386719 34.539062 192.386719 46.539062 C 192.386719 59.515625 186.527344 71.585938 176.308594 79.648438 C 169.039062 85.390625 164.871094 93.839844 164.871094 102.835938 L 164.871094 103.574219 C 164.871094 104.742188 163.921875 105.6875 162.753906 105.6875 Z M 139.4375 101.460938 L 160.664062 101.460938 C 161.070312 91.683594 165.761719 82.589844 173.683594 76.335938 C 182.878906 69.078125 188.15625 58.214844 188.15625 46.539062 C 188.15625 35.738281 183.527344 25.410156 175.457031 18.203125 C 167.277344 10.894531 156.710938 7.535156 145.691406 8.757812 C 127.96875 10.71875 113.519531 25.597656 112.078125 43.375 C 111.058594 55.996094 116.335938 68.25 126.195312 76.15625 C 134.25 82.613281 139.023438 91.773438 139.4375 101.460938 Z M 139.4375 101.460938 " fill-opacity="1" fill-rule="nonzero"/></g><g clip-path="url(#63f7caae85)"><path fill="#000000" d="M 150.054688 131.035156 C 146.550781 131.035156 143.703125 128.191406 143.703125 124.699219 L 143.703125 120.472656 C 143.703125 119.304688 144.648438 118.359375 145.820312 118.359375 L 154.285156 118.359375 C 155.457031 118.359375 156.402344 119.304688 156.402344 120.472656 L 156.402344 124.699219 C 156.402344 128.191406 153.554688 131.035156 150.054688 131.035156 Z M 147.9375 122.585938 L 147.9375 124.699219 C 147.9375 125.863281 148.886719 126.808594 150.054688 126.808594 C 151.21875 126.808594 152.167969 125.863281 152.167969 124.699219 L 152.167969 122.585938 Z M 147.9375 122.585938 " fill-opacity="1" fill-rule="nonzero"/></g><path fill="#000000" d="M 150.054688 105.6875 C 148.882812 105.6875 147.9375 104.742188 147.9375 103.574219 L 147.9375 46.539062 C 147.9375 45.371094 148.882812 44.425781 150.054688 44.425781 C 151.222656 44.425781 152.167969 45.371094 152.167969 46.539062 L 152.167969 103.574219 C 152.167969 104.742188 151.222656 105.6875 150.054688 105.6875 Z M 150.054688 105.6875 " fill-opacity="1" fill-rule="nonzero"/><path fill="#000000" d="M 150.054688 76.113281 C 149.511719 76.113281 148.96875 75.90625 148.554688 75.492188 L 133.738281 60.707031 C 132.910156 59.882812 132.910156 58.542969 133.738281 57.71875 C 134.566406 56.894531 135.90625 56.894531 136.730469 57.71875 L 150.054688 71.011719 L 163.375 57.71875 C 164.199219 56.894531 165.539062 56.894531 166.367188 57.71875 C 167.195312 58.542969 167.195312 59.882812 166.367188 60.707031 L 151.550781 75.492188 C 151.136719 75.90625 150.59375 76.113281 150.054688 76.113281 Z M 150.054688 76.113281 " fill-opacity="1" fill-rule="nonzero"/><path fill="#000000" d="M 150.054688 48.652344 C 145.382812 48.652344 141.585938 44.859375 141.585938 40.203125 C 141.585938 35.542969 145.382812 31.753906 150.054688 31.753906 C 154.722656 31.753906 158.519531 35.542969 158.519531 40.203125 C 158.519531 44.859375 154.722656 48.652344 150.054688 48.652344 Z M 150.054688 35.976562 C 147.71875 35.976562 145.820312 37.871094 145.820312 40.203125 C 145.820312 42.53125 147.71875 44.425781 150.054688 44.425781 C 152.386719 44.425781 154.285156 42.53125 154.285156 40.203125 C 154.285156 37.871094 152.386719 35.976562 150.054688 35.976562 Z M 150.054688 35.976562 " fill-opacity="1" fill-rule="nonzero"/><path fill="#000000" d="M 169.105469 61.324219 C 164.433594 61.324219 160.636719 57.535156 160.636719 52.875 C 160.636719 48.21875 164.433594 44.425781 169.105469 44.425781 C 173.773438 44.425781 177.570312 48.21875 177.570312 52.875 C 177.570312 57.535156 173.773438 61.324219 169.105469 61.324219 Z M 169.105469 48.652344 C 166.769531 48.652344 164.871094 50.546875 164.871094 52.875 C 164.871094 55.207031 166.769531 57.101562 169.105469 57.101562 C 171.4375 57.101562 173.335938 55.207031 173.335938 52.875 C 173.335938 50.546875 171.4375 48.652344 169.105469 48.652344 Z M 169.105469 48.652344 " fill-opacity="1" fill-rule="nonzero"/><path fill="#000000" d="M 131 61.324219 C 126.332031 61.324219 122.535156 57.535156 122.535156 52.875 C 122.535156 48.21875 126.332031 44.425781 131 44.425781 C 135.671875 44.425781 139.46875 48.21875 139.46875 52.875 C 139.46875 57.535156 135.671875 61.324219 131 61.324219 Z M 131 48.652344 C 128.667969 48.652344 126.769531 50.546875 126.769531 52.875 C 126.769531 55.207031 128.667969 57.101562 131 57.101562 C 133.335938 57.101562 135.234375 55.207031 135.234375 52.875 C 135.234375 50.546875 133.335938 48.652344 131 48.652344 Z M 131 48.652344 " fill-opacity="1" fill-rule="nonzero"/></svg>